<?xml version="1.0" encoding="utf-8"?>
<!-- Generator: Adobe Illustrator 16.0.0, SVG Export Plug-In . SVG Version: 6.00 Build 0)  -->
<!DOCTYPE svg PUBLIC "-//W3C//DTD SVG 1.1//EN" "http://www.w3.org/Graphics/SVG/1.1/DTD/svg11.dtd">
<svg version="1.1" id="Capa_1" xmlns="http://www.w3.org/2000/svg" xmlns:xlink="http://www.w3.org/1999/xlink" x="0px" y="0px"
	 width="21.835px" height="21.901px" viewBox="-2 -2 21.835 21.901" enable-background="new -2 -2 21.835 21.901"
	 xml:space="preserve">
<g>
	<g id="screen-rotation">
		<path fill="#FFFFFF" d="M11.866,2.656c2.186,0.994,3.71,3.114,3.975,5.631h0.994C16.438,4.18,13.059,1,8.884,1
			C8.751,1,8.619,1,8.42,1l2.518,2.518L11.866,2.656z M7.692,2.126c-0.398-0.398-0.994-0.398-1.392,0l-4.24,4.24
			c-0.397,0.397-0.397,0.994,0,1.391l7.951,7.951c0.398,0.398,0.994,0.398,1.392,0l4.24-4.24c0.397-0.397,0.397-0.994,0-1.391
			L7.692,2.126z M10.74,15.046L2.789,7.095l4.24-4.24l7.951,7.951L10.74,15.046z M5.903,15.245c-2.187-0.994-3.71-3.114-3.976-5.632
			H1c0.331,4.107,3.71,7.288,7.884,7.288c0.133,0,0.265,0,0.464,0l-2.518-2.518L5.903,15.245z"/>
	</g>
</g>
</svg>
