<?xml version="1.0" encoding="utf-8"?>
<!-- Generator: Adobe Illustrator 16.0.0, SVG Export Plug-In . SVG Version: 6.00 Build 0)  -->
<!DOCTYPE svg PUBLIC "-//W3C//DTD SVG 1.1//EN" "http://www.w3.org/Graphics/SVG/1.1/DTD/svg11.dtd">
<svg version="1.1" id="Capa_1" xmlns="http://www.w3.org/2000/svg" xmlns:xlink="http://www.w3.org/1999/xlink" x="0px" y="0px"
	 width="22px" height="22px" viewBox="0 0 22 22" enable-background="new 0 0 22 22" xml:space="preserve">
<g>
	<g id="sync">
		<path fill="#000000" d="M10.954,3.137V0.164L6.992,4.127l3.962,3.962V5.118c3.27,0,5.945,2.675,5.945,5.945
			c0,0.991-0.297,1.981-0.694,2.774l1.486,1.486c0.693-1.288,1.188-2.675,1.188-4.26C18.88,6.703,15.314,3.137,10.954,3.137z
			 M10.954,17.007c-3.27,0-5.945-2.675-5.945-5.945c0-0.991,0.298-1.981,0.694-2.774L4.217,6.802
			C3.523,8.09,3.028,9.477,3.028,11.062c0,4.36,3.567,7.926,7.926,7.926v2.973l3.963-3.963l-3.963-3.962V17.007z"/>
	</g>
</g>
</svg>
