<?xml version="1.0" encoding="utf-8"?>
<!-- Generator: Adobe Illustrator 16.0.0, SVG Export Plug-In . SVG Version: 6.00 Build 0)  -->
<!DOCTYPE svg PUBLIC "-//W3C//DTD SVG 1.1//EN" "http://www.w3.org/Graphics/SVG/1.1/DTD/svg11.dtd">
<svg version="1.1" id="Capa_1" xmlns="http://www.w3.org/2000/svg" xmlns:xlink="http://www.w3.org/1999/xlink" x="0px" y="0px"
	 width="22px" height="22px" viewBox="0 0 22 22" enable-background="new 0 0 22 22" xml:space="preserve">
<g>
	<g id="sync">
		<path fill="#FFFFFF" d="M11,5.21V3.039L8.105,5.934L11,8.829V6.658c2.389,0,4.343,1.954,4.343,4.342
			c0,0.724-0.217,1.447-0.507,2.026l1.086,1.085c0.506-0.94,0.868-1.954,0.868-3.112C16.79,7.815,14.184,5.21,11,5.21z M11,15.342
			c-2.388,0-4.342-1.954-4.342-4.342c0-0.724,0.217-1.447,0.507-2.026L6.078,7.888C5.572,8.829,5.21,9.842,5.21,11
			c0,3.185,2.605,5.79,5.79,5.79v2.171l2.895-2.895L11,13.171V15.342z"/>
	</g>
</g>
</svg>
